<svg width="24" height="24" viewBox="0 0 24 24" fill="none" xmlns="http://www.w3.org/2000/svg">
<path d="M15.7059 6.525C15.7059 6.73125 15.6918 6.9375 15.666 7.14141C15.6778 7.05938 15.6895 6.975 15.6989 6.89297C15.6426 7.30078 15.5348 7.69688 15.3778 8.07656C15.4082 8.00156 15.441 7.92656 15.4715 7.85156C15.3145 8.22188 15.1129 8.56875 14.8668 8.8875C14.916 8.82422 14.9653 8.76094 15.0145 8.69766C14.7707 9.01172 14.4871 9.29531 14.1731 9.53906C14.2364 9.48984 14.2996 9.44063 14.3629 9.39141C14.0442 9.63516 13.6973 9.83906 13.327 9.99609C13.402 9.96563 13.477 9.93281 13.552 9.90234C13.1723 10.0594 12.7762 10.1672 12.3684 10.2234C12.4504 10.2117 12.5348 10.2 12.6168 10.1906C12.2067 10.2445 11.7942 10.2445 11.384 10.1906C11.466 10.2023 11.5504 10.2141 11.6324 10.2234C11.2246 10.1672 10.8285 10.0594 10.4488 9.90234C10.5238 9.93281 10.5988 9.96563 10.6738 9.99609C10.3035 9.83906 9.95666 9.6375 9.63791 9.39141C9.70119 9.44063 9.76447 9.48984 9.82775 9.53906C9.51369 9.29531 9.2301 9.01172 8.98635 8.69766C9.03556 8.76094 9.08478 8.82422 9.134 8.8875C8.89025 8.56875 8.68635 8.22188 8.52931 7.85156C8.55978 7.92656 8.59259 8.00156 8.62306 8.07656C8.46603 7.69688 8.35822 7.30078 8.30197 6.89297C8.31369 6.975 8.32541 7.05938 8.33478 7.14141C8.28088 6.73125 8.28088 6.31875 8.33478 5.9086C8.32306 5.99063 8.31135 6.075 8.30197 6.15703C8.35822 5.74922 8.46603 5.35313 8.62306 4.97344C8.59259 5.04844 8.55978 5.12344 8.52931 5.19844C8.68635 4.82813 8.88791 4.48125 9.134 4.1625C9.08478 4.22578 9.03556 4.28906 8.98635 4.35234C9.2301 4.03828 9.51369 3.75469 9.82775 3.51094C9.76447 3.56016 9.70119 3.60938 9.63791 3.6586C9.95666 3.41485 10.3035 3.21094 10.6738 3.05391C10.5988 3.08438 10.5238 3.11719 10.4488 3.14766C10.8285 2.99063 11.2246 2.88281 11.6324 2.82656C11.5504 2.83828 11.466 2.85 11.384 2.85938C11.7942 2.80547 12.2067 2.80547 12.6168 2.85938C12.5348 2.84766 12.4504 2.83594 12.3684 2.82656C12.7762 2.88281 13.1723 2.99063 13.552 3.14766C13.477 3.11719 13.402 3.08438 13.327 3.05391C13.6973 3.21094 14.0442 3.4125 14.3629 3.6586C14.2996 3.60938 14.2364 3.56016 14.1731 3.51094C14.4871 3.75469 14.7707 4.03828 15.0145 4.35234C14.9653 4.28906 14.916 4.22578 14.8668 4.1625C15.1106 4.48125 15.3145 4.82813 15.4715 5.19844C15.441 5.12344 15.4082 5.04844 15.3778 4.97344C15.5348 5.35313 15.6426 5.74922 15.6989 6.15703C15.6871 6.075 15.6754 5.99063 15.666 5.9086C15.6918 6.1125 15.7035 6.31875 15.7059 6.525C15.7082 7.01484 16.1348 7.48594 16.6434 7.4625C17.1496 7.43906 17.5832 7.05 17.5809 6.525C17.5762 5.40234 17.2387 4.25391 16.5778 3.33985C16.3996 3.09375 16.2098 2.85235 15.9988 2.63438C15.7856 2.41406 15.5512 2.22422 15.3074 2.03906C14.8645 1.70156 14.3699 1.45313 13.8449 1.26094C11.7285 0.485158 9.17619 1.17656 7.74416 2.92031C7.54728 3.15938 7.35978 3.40781 7.20041 3.675C7.04103 3.93985 6.91681 4.2211 6.80197 4.50703C6.58634 5.03672 6.47619 5.59922 6.43166 6.16875C6.34494 7.28438 6.63556 8.44922 7.21681 9.40547C7.77697 10.3289 8.62306 11.1211 9.61213 11.5688C9.90275 11.7 10.2004 11.8219 10.5098 11.9086C10.8168 11.993 11.1285 12.0398 11.4449 12.0773C12.0215 12.1453 12.6098 12.0984 13.1793 11.9836C15.3426 11.543 17.1543 9.67969 17.4895 7.49297C17.5387 7.17422 17.5762 6.85547 17.5762 6.53203C17.5785 6.04219 17.1426 5.57109 16.6387 5.59453C16.1324 5.61094 15.7059 6 15.7059 6.525ZM18.816 21.1805C18.3567 21.1805 17.8973 21.1805 17.4379 21.1805C16.3434 21.1805 15.2512 21.1805 14.1567 21.1805C12.8395 21.1805 11.5223 21.1805 10.2028 21.1805C9.06603 21.1805 7.92931 21.1805 6.79025 21.1805C6.25822 21.1805 5.72619 21.1852 5.19415 21.1805C5.13556 21.1805 5.07697 21.1758 5.02072 21.1688C5.10275 21.1805 5.18712 21.1922 5.26915 21.2016C5.1754 21.1875 5.08634 21.1617 4.99962 21.1266C5.07462 21.157 5.14962 21.1898 5.22462 21.2203C5.13087 21.1805 5.04415 21.1289 4.96212 21.0656C5.0254 21.1148 5.08869 21.1641 5.15197 21.2133C5.08165 21.1547 5.01603 21.0914 4.95978 21.0211C5.009 21.0844 5.05822 21.1477 5.10744 21.2109C5.04415 21.1289 4.99494 21.0422 4.95275 20.9484C4.98322 21.0234 5.01603 21.0984 5.0465 21.1734C5.01134 21.0867 4.9879 20.9953 4.9715 20.9039C4.98322 20.9859 4.99494 21.0703 5.00431 21.1523C4.96681 20.8688 4.99259 20.5688 4.99259 20.2828C4.99259 19.9477 4.99259 19.6148 4.99259 19.2797C4.99259 19.0289 5.00665 18.7805 5.03947 18.532C5.02775 18.6141 5.01603 18.6984 5.00665 18.7805C5.07228 18.3 5.19884 17.8289 5.38869 17.3813C5.35822 17.4563 5.3254 17.5313 5.29494 17.6063C5.47775 17.1797 5.71212 16.7789 5.99572 16.4109C5.9465 16.4742 5.89728 16.5375 5.84806 16.6008C6.13166 16.2375 6.45744 15.9094 6.82306 15.6258C6.75978 15.675 6.6965 15.7242 6.63322 15.7734C7.00119 15.4898 7.40197 15.2555 7.82853 15.0727C7.75353 15.1031 7.67853 15.1359 7.60353 15.1664C8.05119 14.9789 8.51994 14.85 9.00275 14.7844C8.92072 14.7961 8.83635 14.8078 8.75431 14.8172C9.10119 14.7727 9.44572 14.7703 9.79494 14.7703C10.2238 14.7703 10.6528 14.7703 11.0817 14.7703C12.0824 14.7703 13.0832 14.7703 14.084 14.7703C14.4707 14.7703 14.8551 14.768 15.2418 14.8172C15.1598 14.8055 15.0754 14.7938 14.9934 14.7844C15.4739 14.85 15.9449 14.9766 16.3926 15.1664C16.3176 15.1359 16.2426 15.1031 16.1676 15.0727C16.5942 15.2555 16.9949 15.4898 17.3629 15.7734C17.2996 15.7242 17.2364 15.675 17.1731 15.6258C17.5364 15.9094 17.8645 16.2352 18.1481 16.6008C18.0989 16.5375 18.0496 16.4742 18.0004 16.4109C18.284 16.7789 18.5184 17.1797 18.7012 17.6063C18.6707 17.5313 18.6379 17.4563 18.6074 17.3813C18.7949 17.8289 18.9239 18.2977 18.9895 18.7805C18.9778 18.6984 18.966 18.6141 18.9567 18.532C19.0012 18.8859 19.0035 19.2375 19.0035 19.5938C19.0035 19.9805 19.0035 20.3672 19.0035 20.7539C19.0035 20.8875 19.0082 21.0211 18.9918 21.1523C19.0035 21.0703 19.0153 20.9859 19.0246 20.9039C19.0106 20.9977 18.9848 21.0867 18.9496 21.1734C18.9801 21.0984 19.0129 21.0234 19.0434 20.9484C19.0035 21.0422 18.952 21.1289 18.8887 21.2109C18.9379 21.1477 18.9871 21.0844 19.0364 21.0211C18.9778 21.0914 18.9145 21.157 18.8442 21.2133C18.9074 21.1641 18.9707 21.1148 19.034 21.0656C18.952 21.1289 18.8653 21.1781 18.7715 21.2203C18.8465 21.1898 18.9215 21.157 18.9965 21.1266C18.9098 21.1617 18.8184 21.1852 18.727 21.2016C18.809 21.1898 18.8934 21.1781 18.9754 21.1688C18.9239 21.1758 18.8699 21.1781 18.816 21.1805C18.5746 21.1828 18.3262 21.2836 18.1528 21.4547C17.991 21.6164 17.8668 21.8836 17.8785 22.118C17.902 22.6195 18.291 23.0625 18.816 23.0555C19.7278 23.0414 20.5293 22.4461 20.7965 21.5719C20.902 21.225 20.8785 20.8523 20.8785 20.4961C20.8785 19.6805 20.9043 18.8719 20.7637 18.0633C20.5574 16.8797 19.9621 15.7664 19.1465 14.8922C18.3309 14.018 17.234 13.3758 16.0739 13.0898C15.4082 12.9258 14.7379 12.9 14.0582 12.9C13.3598 12.9 12.6637 12.9 11.9653 12.9C11.2762 12.9 10.5895 12.9 9.90041 12.9C9.20431 12.9 8.51291 12.9328 7.83556 13.1133C6.68478 13.418 5.60197 14.0672 4.80275 14.9484C3.9965 15.8367 3.4129 16.9523 3.22306 18.143C3.0965 18.9422 3.12228 19.7438 3.12228 20.55C3.12228 20.9203 3.10118 21.307 3.23478 21.6609C3.40822 22.1156 3.68478 22.4742 4.09025 22.7438C4.40665 22.9523 4.80744 23.0531 5.18244 23.0578C5.36525 23.0602 5.54806 23.0578 5.73087 23.0578C6.19962 23.0578 6.66603 23.0578 7.13478 23.0578C7.80041 23.0578 8.46369 23.0578 9.12931 23.0578C9.90275 23.0578 10.6762 23.0578 11.4496 23.0578C12.2442 23.0578 13.0363 23.0578 13.8309 23.0578C14.5574 23.0578 15.2817 23.0578 16.0082 23.0578C16.5778 23.0578 17.1473 23.0578 17.7145 23.0578C18.0403 23.0578 18.366 23.0578 18.6918 23.0578C18.734 23.0578 18.7762 23.0578 18.8184 23.0578C19.3082 23.0578 19.7793 22.6266 19.7559 22.1203C19.7324 21.6094 19.3434 21.1805 18.816 21.1805Z" fill="white"/>
</svg>
